<?xml version="1.0" encoding="utf-8"?>
<!-- Generator: Adobe Illustrator 26.5.3, SVG Export Plug-In . SVG Version: 6.00 Build 0)  -->
<svg version="1.1" id="Layer_1" xmlns="http://www.w3.org/2000/svg" xmlns:xlink="http://www.w3.org/1999/xlink" x="0px" y="0px"
	 viewBox="0 0 288 144" style="enable-background:new 0 0 288 144;" xml:space="preserve">
<style type="text/css">
	.st0{fill:#254355;stroke:#254355;stroke-width:3;stroke-miterlimit:10;}
	.st1{fill:#254355;stroke:#254355;stroke-width:0.25;stroke-miterlimit:10;}
	.st2{fill:none;stroke:#254355;stroke-width:4;stroke-miterlimit:10;}
	.st3{fill:#254355;}
</style>
<g>
	<path class="st0" d="M48.02,61.18c-0.27-2.76-1.35-3.66-3.5-4.13c-0.4-0.14-0.59-0.43-0.52-0.81c0.08-0.48,0.42-0.76,0.9-0.76
		h13.35c0.48,0,0.65,0.33,0.58,0.76c-0.08,0.43-0.38,0.81-0.85,0.81c-1.47,0-2.48,0.57-2.7,1.85c-0.08,0.48-0.04,1.04,0.06,1.57
		l1.62,21.52c-0.01,0.05,0.03,0.09,0.08,0.09s0.1-0.05,0.11-0.09L68.4,56.34c0.39-0.86,1.86-1.14,3.86-1.14
		c1.52,0,2.84,0.05,2.84,0.62l1.65,26.18c-0.01,0.05,0.03,0.09,0.08,0.09c0.05,0,0.1-0.05,0.11-0.09L87.3,60.42
		c0.28-0.52,0.5-0.95,0.58-1.38c0.24-1.38-0.65-1.95-2.74-2c-0.47-0.05-0.69-0.38-0.62-0.81c0.08-0.43,0.47-0.76,0.94-0.76h9.74
		c0.52,0,0.8,0.29,0.73,0.71c-0.08,0.48-0.42,0.76-0.91,0.86c-2.11,0.38-3.31,1.52-4.47,3.8L78,85.7c-0.5,0.95-2.2,1.42-4.24,1.42
		c-1.81,0-3.21-0.38-3.28-1.09l-1.52-22.9c-0.01-0.24,0-0.29-0.05-0.29c-0.05,0-0.06,0.05-0.15,0.29L58.47,85.7
		c-0.46,1-2.29,1.42-4.39,1.42c-1.9,0-3.22-0.33-3.32-1.09L48.02,61.18z"/>
	<path class="st0" d="M112.1,56.15l4.72,24.95c0.42,2.19,1.3,3.42,3.46,4.09c0.35,0.14,0.69,0.38,0.61,0.86
		c-0.09,0.52-0.51,0.76-0.89,0.76h-13.16c-0.48,0-0.7-0.33-0.63-0.76c0.07-0.38,0.37-0.76,0.86-0.81c1.16-0.1,2.37-0.52,2.62-1.95
		c0.07-0.38,0.06-0.85-0.04-1.38l-0.91-4.8c-0.04-0.33-0.11-0.43-0.45-0.43h-8.65c-1.52,0-3.09,0.29-4.09,1.9l-2.15,3.56
		c-0.27,0.43-0.44,0.9-0.5,1.24c-0.29,1.62,1.38,1.85,2.62,1.85c0.47,0,0.65,0.38,0.58,0.76c-0.08,0.47-0.43,0.81-0.9,0.81h-9.55
		c-0.52,0-0.76-0.29-0.68-0.71c0.07-0.38,0.32-0.71,0.82-0.85c2.42-0.52,3.48-1.95,4.69-3.94l14.79-24.61
		c0.55-0.95,2.35-1.47,4.16-1.47C110.93,55.2,111.97,55.53,112.1,56.15z M98.42,73.58c-0.13,0.19-0.14,0.24-0.15,0.29
		c-0.02,0.09,0.07,0.14,0.21,0.14h8.7c0.57,0,0.78-0.14,0.85-0.52c0.03-0.19,0.02-0.38,0.01-0.62l-1.35-7.41
		c-0.29-1.62-0.63-3.18-0.63-4.8c0.02-0.1-0.02-0.14-0.07-0.14c-0.05,0-0.1,0.05-0.12,0.14c-0.54,1.19-1.18,2.38-1.91,3.56
		L98.42,73.58z"/>
	<path class="st0" d="M142.57,55.48c3.9,0,6.37-0.28,7.89-0.28c1.81,0,1.73,1.23,1.59,2.04c-0.15,0.86-1.36,5.56-1.49,6.32
		c-0.11,0.62-0.58,0.86-1.01,0.86c-0.47,0-0.7-0.33-0.7-0.86c-0.06-3.14-1.85-4.85-4.45-5.46c-0.69-0.14-2.05-0.24-2.43-0.24
		c-0.33,0-0.56,0.19-0.66,0.52l-4.71,22.38c-0.51,2.9,0.82,3.99,3.35,4.47c0.36,0.09,0.6,0.38,0.53,0.76
		c-0.09,0.52-0.52,0.81-0.95,0.81h-13.97c-0.43,0-0.67-0.24-0.59-0.71c0.08-0.47,0.37-0.76,0.82-0.85c2.17-0.71,3.71-2.19,4.2-4.42
		l4.72-22.47c0.06-0.33-0.19-0.52-0.53-0.52c-0.43,0-2.24,0.05-2.65,0.19c-2.93,0.48-5.27,2.38-7.05,5.46
		c-0.35,0.62-0.74,0.95-1.26,0.95c-0.33,0-0.61-0.29-0.54-0.71l2.3-6.56c0.3-0.9,0.96-1.95,2.48-1.95l7.03,0.28H142.57z"/>
	<path class="st0" d="M167.85,55.43c3.99,0,7.5-0.24,9.5-0.24c1.43,0,1.77,0.76,1.56,1.95l-1.55,5.56c-0.17,0.71-0.49,0.9-0.97,0.9
		c-0.38,0-0.67-0.24-0.77-0.76c-0.41-3.09-1.92-4.47-4.71-4.8c-0.67-0.24-5.93-0.33-6.97-0.33c-0.33,0-0.55,0.14-0.6,0.43
		l-2.08,9.93c-0.12,0.71,0.19,1.09,1,1.09c0.57,0,4.05-0.05,4.54-0.14c2.01-0.1,4.06-0.38,5.96-0.95c0.3-0.1,0.65-0.19,0.89-0.19
		c0.38,0,0.49,0.19,0.41,0.62l-0.97,3.37c-0.14,0.52-0.49,0.9-1.06,0.9c-1.38,0-3.08-0.62-5.46-0.81c-0.91-0.24-3.66-0.28-4.7-0.28
		c-0.86,0-1.38,0.57-1.57,1.33l-1.92,8.98c-0.31,1.76,0.63,2.61,3.43,2.61c0.67,0,3.44-0.09,4.14-0.28
		c2.82-0.38,5.49-1.47,7.57-4.94c0.26-0.38,0.6-0.71,1.03-0.71c0.52,0,0.64,0.43,0.54,1l-1.38,5.65c-0.3,1.19-1.27,1.81-2.55,1.81
		c-0.81,0-5.79-0.33-9.35-0.33h-13.78c-0.43,0-0.72-0.24-0.63-0.71s0.36-0.71,0.86-0.85c2.79-0.71,3.38-2.76,3.9-5.13l4-18.91
		c0.37-2.09,0.2-3.8-2.22-4.13c-0.36-0.1-0.55-0.38-0.48-0.76c0.09-0.52,0.48-0.81,0.9-0.81L167.85,55.43z"/>
	<path class="st0" d="M209.25,63.7c-0.95,5.37-6.51,8.6-11.39,8.84c-0.2,0.05-0.21,0.1-0.22,0.14c-0.01,0.05-0.02,0.1,0.09,0.29
		c2,2.42,3.95,4.8,6.2,7.13c1.93,2,4.11,3.9,6.44,4.99c0.31,0.14,0.42,0.33,0.37,0.62c-0.07,0.38-0.39,0.62-0.84,0.71
		c-1.46,0.47-3.14,0.81-4.7,0.81c-2.99,0-5.54-0.95-7.18-2.66c-2.27-2.47-3.65-5.99-5.02-9.5c-0.6-1.47-1.21-2.28-2.83-2.28
		l-1.65,7.75c-0.58,3.28,0.62,4.28,3.54,4.71c0.41,0.09,0.69,0.38,0.62,0.81c-0.08,0.47-0.47,0.76-0.99,0.76h-13.83
		c-0.38,0-0.67-0.24-0.59-0.71s0.36-0.71,0.82-0.85c2.83-0.71,3.42-2.71,3.95-5.13l3.92-18.72c0.38-2.14,0.37-3.99-2.14-4.32
		c-0.36-0.1-0.6-0.38-0.53-0.76c0.14-0.52,0.52-0.81,0.95-0.81h5.7c2.28,0,6.42-0.28,9.17-0.28
		C205.24,55.2,210.38,57.33,209.25,63.7z M202.12,65.08c0.92-5.23-3.48-7.51-7.94-7.51c-0.57,0-0.85,0.24-1,0.81l-2.37,11.26
		c-0.11,0.9,0.49,1.28,3.2,1.28C198.05,70.92,201.4,69.16,202.12,65.08z"/>
</g>
<g>
	<path class="st1" d="M32.8,56.15c1.3,0.4,2.41,1.73,1.89,3.42c-0.45,1.46-1.7,1.81-2.82,1.46c-1.31-0.41-2.45-1.77-1.93-3.44
		C30.38,56.16,31.66,55.8,32.8,56.15z M31.56,59.97c1.01,0.31,2.34,0.07,2.68-1c0.27-0.88-0.34-1.5-1.15-1.76
		c-1.02-0.32-2.38-0.05-2.7,1C30.12,59.08,30.74,59.71,31.56,59.97z"/>
	<path class="st1" d="M36.11,52.69c0.57,0.03,0.85,0.17,0.85,0.16c0.01-0.01-0.14-0.1-0.59-0.46l-1.71-1.34
		c-0.32-0.23-0.61-0.23-0.85,0.04c-0.05,0.05-0.12,0.06-0.17,0.02c-0.05-0.04-0.08-0.11-0.03-0.17l0.86-1.18
		c0.04-0.06,0.11-0.07,0.17-0.02c0.05,0.04,0.07,0.1,0.04,0.17c-0.15,0.32-0.02,0.5,0.28,0.74l3.14,2.46
		c0.06,0.04,0.01,0.2-0.14,0.41c-0.09,0.12-0.21,0.23-0.45,0.28c-0.22,0.04-0.49,0.04-0.85,0.01l-3.1-0.19
		c-0.36-0.02-0.61-0.1-0.62-0.09c-0.01,0.01,0.09,0.07,0.39,0.31l2.01,1.56c0.33,0.24,0.6,0.23,0.88-0.05
		c0.05-0.04,0.11-0.05,0.17-0.01c0.05,0.04,0.07,0.1,0.02,0.16l-0.89,1.23c-0.04,0.06-0.12,0.08-0.17,0.04
		c-0.05-0.03-0.07-0.1-0.04-0.17c0.17-0.4-0.01-0.58-0.32-0.83l-2.39-1.87c-0.28-0.2-0.54-0.27-0.83,0
		c-0.05,0.05-0.12,0.05-0.17,0.01c-0.05-0.04-0.08-0.11-0.03-0.18l0.84-1.16c0.06-0.08,0.13-0.11,0.23-0.1L36.11,52.69z"/>
	<path class="st1" d="M39.57,45.96c0.53-0.32,0.83-0.56,1.04-0.68c0.24-0.15,0.36,0.01,0.43,0.12c0.07,0.12,0.4,0.78,0.47,0.88
		c0.05,0.08,0.01,0.15-0.05,0.19c-0.06,0.04-0.13,0.02-0.19-0.05c-0.34-0.37-0.76-0.43-1.18-0.29c-0.11,0.04-0.3,0.14-0.35,0.17
		c-0.05,0.03-0.06,0.07-0.03,0.12l1.73,3.09c0.24,0.39,0.53,0.42,0.92,0.27c0.06-0.02,0.12,0,0.15,0.05
		c0.04,0.07,0.01,0.14-0.04,0.17l-1.89,1.15c-0.06,0.04-0.12,0.03-0.15-0.04c-0.04-0.06-0.03-0.12,0.02-0.17
		c0.22-0.26,0.27-0.57,0.1-0.88l-1.74-3.1c-0.03-0.04-0.08-0.05-0.13-0.02c-0.06,0.04-0.3,0.19-0.34,0.24
		c-0.35,0.3-0.46,0.72-0.37,1.24c0.02,0.1,0,0.17-0.07,0.22c-0.05,0.03-0.11,0.02-0.15-0.04l-0.38-0.98
		c-0.06-0.13-0.08-0.31,0.13-0.44l0.98-0.54L39.57,45.96z"/>
	<path class="st1" d="M42.99,45.27c-0.08-0.31-0.22-0.57-0.6-0.52c-0.06,0-0.12-0.03-0.13-0.09c-0.02-0.08,0.03-0.14,0.09-0.16
		l1.9-0.47c0.06-0.01,0.12,0.01,0.14,0.09c0.02,0.06-0.01,0.12-0.07,0.15c-0.31,0.17-0.37,0.42-0.28,0.83l0.23,1.11
		c0.01,0.02,0.02,0.03,0.04,0.03l1.76-0.43c0.2-0.05,0.31-0.15,0.28-0.31l-0.2-0.96c-0.08-0.32-0.21-0.6-0.61-0.55
		c-0.06,0-0.12-0.03-0.13-0.09c-0.02-0.08,0.03-0.14,0.09-0.15l1.9-0.47c0.05-0.01,0.11,0.01,0.13,0.09
		c0.02,0.07-0.01,0.12-0.06,0.15c-0.35,0.19-0.38,0.44-0.29,0.85l0.62,2.95c0.08,0.34,0.2,0.6,0.6,0.56
		c0.07-0.01,0.12,0.03,0.14,0.09c0.02,0.08-0.03,0.14-0.09,0.15l-1.9,0.47c-0.06,0.02-0.12-0.01-0.14-0.08
		c-0.02-0.07,0.01-0.13,0.07-0.16c0.36-0.19,0.36-0.47,0.26-0.91l-0.25-1.2c-0.01-0.04-0.04-0.05-0.09-0.04l-1.66,0.41
		c-0.26,0.06-0.36,0.16-0.33,0.33l0.24,1.16c0.08,0.33,0.21,0.6,0.62,0.55c0.07-0.01,0.12,0.03,0.13,0.09
		c0.02,0.08-0.03,0.14-0.09,0.15l-1.9,0.47c-0.06,0.02-0.12-0.01-0.14-0.08s0.01-0.13,0.07-0.16c0.36-0.19,0.36-0.51,0.28-0.91
		L42.99,45.27z"/>
	<path class="st1" d="M51.43,43.38c0.63,0.05,1.18,0.05,1.49,0.07c0.23,0.02,0.29,0.14,0.28,0.33l-0.15,0.87
		c-0.02,0.11-0.06,0.14-0.14,0.13c-0.06,0-0.11-0.05-0.13-0.13c-0.11-0.5-0.38-0.73-0.82-0.82c-0.11-0.04-0.94-0.12-1.11-0.13
		c-0.05,0-0.08,0.02-0.09,0.06l-0.17,1.56c-0.01,0.11,0.05,0.18,0.17,0.19c0.09,0.01,0.64,0.04,0.71,0.03
		c0.32,0.01,0.63-0.01,0.93-0.08c0.05-0.01,0.1-0.02,0.14-0.02c0.06,0,0.08,0.04,0.08,0.1l-0.1,0.53c-0.01,0.08-0.06,0.14-0.15,0.13
		c-0.22-0.02-0.5-0.13-0.88-0.19c-0.15-0.05-0.58-0.09-0.75-0.1c-0.13-0.01-0.21,0.08-0.22,0.2l-0.16,1.41
		c-0.02,0.28,0.14,0.43,0.58,0.46c0.11,0.01,0.54,0.02,0.65,0c0.44-0.03,0.84-0.17,1.11-0.7c0.03-0.06,0.08-0.11,0.15-0.1
		c0.08,0,0.11,0.08,0.1,0.17l-0.13,0.89c-0.03,0.19-0.17,0.27-0.37,0.26c-0.13-0.01-0.92-0.12-1.48-0.16l-2.17-0.16
		c-0.07-0.01-0.12-0.05-0.11-0.12c0.01-0.07,0.05-0.11,0.12-0.13c0.43-0.08,0.49-0.4,0.53-0.77l0.32-2.97
		c0.02-0.33-0.03-0.6-0.42-0.69c-0.06-0.02-0.09-0.07-0.09-0.13c0.01-0.08,0.06-0.12,0.13-0.12L51.43,43.38z"/>
</g>
<path class="st2" d="M255.52,108.64H32.48c-6.6,0-12-5.4-12-12V47.36c0-6.6,5.4-12,12-12h223.03c6.6,0,12,5.4,12,12v49.27
	C267.52,103.24,262.12,108.64,255.52,108.64z"/>
<g id="VHgQn7_00000150069606244797630520000017215216552210796165_">
	<g>
		<path class="st3" d="M213.96,95.74c5.22,0.57,10.03,2.57,15.04,3.7c11.4,2.58,24.29-2.62,29.97-12.44
			c6.89-11.92,4.79-28.8-6.41-36.93c-8.12-5.89-17-7.11-26.33-3.55c-6,2.29-9.31,7.68-9.08,13.74c0.15,3.93,6.01,11.56,9.79,12.57
			c1.57,0.42,3.06,0.93,4.45,1.78c1.4,0.86,2.96,1.17,4.62,1.21c4.25,0.12,4.67,0.64,4.27,4.91c-0.03,0.3-0.05,0.6-0.11,1.18
			c1.18-0.83,1.52-1.91,1.52-2.85c-0.01-2.5,2.18-4.03,2.53-6.39c0.17-1.19,1.24-0.62,1.91-0.15c2.65,1.87,2.68,4.59,2.33,7.39
			c-0.13,0.99-0.46,1.96-0.81,3.43c3.99-4.27,2.8-10.94-1.89-13.65c-0.72-0.42-2.36-0.47-1.8-1.69c0.44-0.96,1.93-0.53,2.9-0.25
			c1.58,0.46,2.83,1.38,3.7,2.9c3.93,6.91,1.86,14.43-5.47,19.73c-0.57,0.41-1.34,0.6-1.65,1.35c2.35-0.18,5.86-2.47,7.97-5.45
			c3.34-4.72,4.2-9.87,2.18-15.36c-1.34-3.63-3.95-5.78-7.8-6.44c-0.64-0.11-1.66,0.28-1.77-0.76c-0.08-0.78,0.7-1.22,1.28-1.64
			c0.57-0.41,1.21-0.72,1.96-1.15c-3.39-0.38-6.18,2.97-5.7,6.66c0.15,1.19,0.55,2.35,0.74,3.55c0.19,1.22,0.3,2.52-1.04,3.19
			c-1.43,0.7-2.62,0.13-3.7-0.92c-1.04-1.01-1.41-2.43-2.15-3.7c-1.04,0.85-0.31,1.64-0.34,2.37c-0.03,0.59,0.66,1.29-0.08,1.76
			c-0.61,0.38-1.25-0.08-1.84-0.31c-2.5-0.97-3.59-3.08-4.22-5.48c-0.85,0.03-0.7,0.68-0.78,1.05c-0.45,2.13-1.12,2.42-2.82,1.06
			c-1.56-1.25-2.69-2.78-2.6-4.94c0.04-0.84,0.01-1.69,0.01-2.5c-1.49-0.06-0.81,2.27-2.13,1.6c-1.42-0.72-2.1-2.24-2.16-3.84
			c-0.15-4.27,1.12-7.93,4.83-10.43c4.91-3.31,10.25-4.53,16.33-3.25c-2.12,0.59-4.22,0.49-6.52,2.23
			c4.89-0.27,9.17-1.12,13.89,0.85c-5.3,0.64-9.97,1.34-13.49,5.6c1.37,0.06,1.95-0.8,2.69-1.2c8.15-4.44,20.06-3.41,23.5,8.78
			c2.45,8.68,2.06,17.37-3.71,24.64c-7.25,9.14-17.13,12.1-28.54,9.88c-2.77-0.54-5.49-1.27-8.23-1.94
			C217.42,95.23,215.69,95.38,213.96,95.74z"/>
		<path class="st3" d="M189.75,99.41c9.68-6.21,20.55-7.16,31.54-7.64c3.95-0.17,7.87-0.47,11.6-1.93
			c4.17-1.63,6.41-6.05,5.32-10.56c-0.14,0.04-0.4,0.06-0.41,0.13c-1.99,8.74-7.41,10.07-13.76,10.68
			c-7.43,0.7-14.95,0.85-22.19,2.95C197.39,94.32,193.02,95.85,189.75,99.41z"/>
		<path class="st3" d="M244.73,76.78c-0.21,7.65-4.87,11.74-11.17,14.67c4.12-0.8,8.17-1.76,10.59-5.56
			C245.94,83.1,246.21,80.02,244.73,76.78z"/>
		<path class="st3" d="M208.62,94.25c8.89-0.14,17.78,2.93,26.67-0.05C226.4,95.79,217.51,92.52,208.62,94.25z"/>
	</g>
</g>
</svg>
