<?xml version="1.0" encoding="UTF-8"?>
<svg id="Layer_1" data-name="Layer 1" xmlns="http://www.w3.org/2000/svg" viewBox="0 0 271.54 62.15">
  <defs>
    <style>
      .cls-1 {
        fill: #070602;
      }

      .cls-2 {
        fill: #222220;
        font-family: Elza-Bold, Elza;
        font-size: 13px;
        font-weight: 700;
      }

      .cls-3 {
        letter-spacing: 0em;
      }

      .cls-4 {
        letter-spacing: 0em;
      }

      .cls-5 {
        letter-spacing: -.04em;
      }

      .cls-6 {
        letter-spacing: 0em;
      }
    </style>
  </defs>
  <g>
    <path class="cls-1" d="m159.94,58.64c.23-.24.37-.53.37-.85v-9.79c0-1.72,3.14-1.92,3.48-.22l2.07,10.23c.05.24.17.45.35.63h9.02c.18-.18.3-.4.35-.64l2.07-10.6c.33-1.7,3.48-1.51,3.48.22v10.17c0,.32.14.62.37.85h15.48c.23-.24.37-.53.37-.85V3.04c0-.77-.78-1.4-1.75-1.4h-18.21c-.87,0-1.61.51-1.73,1.19l-3.23,17.39c-.3,1.59-3.18,1.59-3.47,0l-3.2-17.38c-.13-.69-.86-1.19-1.73-1.19h-18.01c-.97,0-1.75.63-1.75,1.4v54.75c0,.32.14.62.37.85h15.28Z"/>
    <path class="cls-1" d="m.9,58.64h15.17c.55-.39.9-.95.9-1.58v-3.77c0-2.38,4.17-2.96,5.17-.71l2.31,5.19c.15.34.41.64.74.87h17.5c.77-.56,1.12-1.46.71-2.33l-9.03-18.97c-.5-1.04.1-2.21,1.37-2.68,1.79-.67,3.02-1.71,4.38-3.52,2.33-3.19,3.61-7.68,3.61-12.77s-1.34-10.01-3.56-12.94c-1.98-2.76-4.35-3.8-8.36-3.8H2.66C1.19,1.64,0,2.59,0,3.76v53.3c0,.63.35,1.19.9,1.58ZM19.48,17.1c4.63,0,8.38,2.73,8.38,6.1s-3.75,6.1-8.38,6.1-8.38-2.73-8.38-6.1,3.75-6.1,8.38-6.1Z"/>
    <path class="cls-1" d="m59.35,58.64h21.56c2.5-1.2,4.62-2.88,6.37-5.07,3.56-4.49,5.64-12.94,5.64-22.78,0-20.97-7.32-30.8-22.91-30.8-6.88,0-12.47,2.24-16.38,6.64-4.11,4.57-6.28,12.77-6.28,23.81,0,10.27,2.03,18.55,5.64,23.12,1.74,2.18,3.87,3.87,6.36,5.07Zm11.53-41.54c4.63,0,8.38,2.73,8.38,6.1s-3.75,6.1-8.38,6.1-8.38-2.73-8.38-6.1,3.75-6.1,8.38-6.1Z"/>
    <path class="cls-1" d="m95.13,58.64h15.43c.46-.33.78-.79.87-1.31l.59-3.71c.17-1.06,1.3-1.85,2.64-1.85h6.34c1.34,0,2.47.79,2.64,1.85l.59,3.71c.08.52.4.98.87,1.31h15.19c.64-.45,1.01-1.14.88-1.88l-9.62-53.3c-.19-1.04-1.31-1.82-2.64-1.82h-22.26c-1.32,0-2.44.77-2.63,1.82l-9.76,53.3c-.14.74.23,1.43.88,1.89Zm12.94-33.45c.18-4.3,4.69-7.6,10.09-7.38,5.39.22,9.62,3.89,9.44,8.19,0,0,0,.01,0,.02-.05,1.14-1.06,2.02-2.2,1.99-1.07-.02-2.06-.25-2.69-1.08-5.24-6.87-9.29-2.26-9.29-2.26,4.73-2.15,4.46,5.01-2.5,3.77.6.14-.37-.07,0,0-1.54-.36-2.9-1.64-2.84-3.22,0-.01,0-.02,0-.03Z"/>
  </g>
  <text class="cls-2" transform="translate(203.42 11.3)"><tspan x="0" y="0">THE</tspan><tspan class="cls-4" x="0" y="15.61">S</tspan><tspan x="8.48" y="15.61">U</tspan><tspan class="cls-3" x="17.61" y="15.61">R</tspan><tspan class="cls-6" x="26.27" y="15.61">F</tspan><tspan x="0" y="31.21">MEDIA</tspan><tspan x="0" y="46.82">M</tspan><tspan class="cls-5" x="11.44" y="46.82">A</tspan><tspan class="cls-6" x="20.4" y="46.82">GAZINE</tspan></text>
</svg>