<?xml version="1.0" encoding="utf-8"?>
<!-- Generator: Adobe Illustrator 27.1.1, SVG Export Plug-In . SVG Version: 6.00 Build 0)  -->
<svg version="1.1" id="Layer_1" xmlns="http://www.w3.org/2000/svg" xmlns:xlink="http://www.w3.org/1999/xlink" x="0px" y="0px"
	 viewBox="0 0 271.5 62.2" style="enable-background:new 0 0 271.5 62.2;" xml:space="preserve">
<style type="text/css">
	.st0{fill:#070602;}
	.st1{fill:#222220;}
	.st2{font-family:'Elza-Bold';}
	.st3{font-size:13px;}
</style>
<g>
	<path class="st0" d="M159.9,58.6c0.2-0.2,0.4-0.5,0.4-0.8V48c0-1.7,3.1-1.9,3.5-0.2l2.1,10.2c0.1,0.2,0.2,0.5,0.4,0.6h9
		c0.2-0.2,0.3-0.4,0.4-0.6l2.1-10.6c0.3-1.7,3.5-1.5,3.5,0.2v10.2c0,0.3,0.1,0.6,0.4,0.8H197c0.2-0.2,0.4-0.5,0.4-0.8V3
		c0-0.8-0.8-1.4-1.8-1.4h-18.2c-0.9,0-1.6,0.5-1.7,1.2l-3.2,17.4c-0.3,1.6-3.2,1.6-3.5,0l-3.2-17.4c-0.1-0.7-0.9-1.2-1.7-1.2h-18
		c-1,0-1.8,0.6-1.8,1.4v54.8c0,0.3,0.1,0.6,0.4,0.8L159.9,58.6L159.9,58.6z"/>
	<path class="st0" d="M0.9,58.6h15.2c0.5-0.4,0.9-1,0.9-1.6v-3.8c0-2.4,4.2-3,5.2-0.7l2.3,5.2c0.1,0.3,0.4,0.6,0.7,0.9h17.5
		c0.8-0.6,1.1-1.5,0.7-2.3l-9-19c-0.5-1,0.1-2.2,1.4-2.7c1.8-0.7,3-1.7,4.4-3.5c2.3-3.2,3.6-7.7,3.6-12.8s-1.3-10-3.6-12.9
		c-2-2.8-4.3-3.8-8.4-3.8H2.7C1.2,1.6,0,2.6,0,3.8v53.3C0,57.7,0.3,58.2,0.9,58.6z M19.5,17.1c4.6,0,8.4,2.7,8.4,6.1
		s-3.8,6.1-8.4,6.1s-8.4-2.7-8.4-6.1S14.8,17.1,19.5,17.1z"/>
	<path class="st0" d="M59.3,58.6h21.6c2.5-1.2,4.6-2.9,6.4-5.1c3.6-4.5,5.6-12.9,5.6-22.8C92.9,9.8,85.6,0,70,0
		c-6.9,0-12.5,2.2-16.4,6.6c-4.1,4.6-6.3,12.8-6.3,23.8c0,10.3,2,18.5,5.6,23.1C54.7,55.7,56.9,57.4,59.3,58.6L59.3,58.6z
		 M70.9,17.1c4.6,0,8.4,2.7,8.4,6.1s-3.8,6.1-8.4,6.1s-8.4-2.7-8.4-6.1S66.2,17.1,70.9,17.1z"/>
	<path class="st0" d="M95.1,58.6h15.4c0.5-0.3,0.8-0.8,0.9-1.3l0.6-3.7c0.2-1.1,1.3-1.8,2.6-1.8h6.3c1.3,0,2.5,0.8,2.6,1.8l0.6,3.7
		c0.1,0.5,0.4,1,0.9,1.3h15.2c0.6-0.5,1-1.1,0.9-1.9l-9.6-53.3c-0.2-1-1.3-1.8-2.6-1.8h-22.3c-1.3,0-2.4,0.8-2.6,1.8l-9.8,53.3
		C94.1,57.5,94.5,58.2,95.1,58.6L95.1,58.6z M108.1,25.2c0.2-4.3,4.7-7.6,10.1-7.4c5.4,0.2,9.6,3.9,9.4,8.2c0,0,0,0,0,0
		c-0.1,1.1-1.1,2-2.2,2c-1.1,0-2.1-0.2-2.7-1.1c-5.2-6.9-9.3-2.3-9.3-2.3c4.7-2.1,4.5,5-2.5,3.8c0.6,0.1-0.4-0.1,0,0
		C109.4,28.1,108,26.8,108.1,25.2C108.1,25.2,108.1,25.2,108.1,25.2L108.1,25.2z"/>
</g>
<text transform="matrix(1 0 0 1 203.088 11.3)" class="st1 st2 st3">THE</text>
<text transform="matrix(1 0 0 1 203.1719 26.91)" class="st1 st2 st3">S</text>
<text transform="matrix(1 0 0 1 211.5103 26.91)" class="st1 st2 st3">U</text>
<text transform="matrix(1 0 0 1 220.6013 26.91)" class="st1 st2 st3">R</text>
<text transform="matrix(1 0 0 1 229.317 26.91)" class="st1 st2 st3">F</text>
<text transform="matrix(1 0 0 1 202.8502 42.51)" class="st1 st2 st3">MEDIA</text>
<text transform="matrix(1 0 0 1 202.8502 58.12)" class="st1 st2 st3">M</text>
<text transform="matrix(1 0 0 1 214.6061 58.12)" class="st1 st2 st3">A</text>
<text transform="matrix(1 0 0 1 223.5871 58.12)" class="st1 st2 st3">GAZINE</text>
</svg>
