<?xml version="1.0" encoding="utf-8"?>
<!-- Generator: Adobe Illustrator 27.5.0, SVG Export Plug-In . SVG Version: 6.00 Build 0)  -->
<svg version="1.1" id="Layer_1" xmlns="http://www.w3.org/2000/svg" xmlns:xlink="http://www.w3.org/1999/xlink" x="0px" y="0px"
	 viewBox="0 0 558 170" style="enable-background:new 0 0 558 170;" xml:space="preserve">
<style type="text/css">
	.st0{fill:#254355;stroke:#254355;stroke-width:3;stroke-miterlimit:10;}
	.st1{fill:#254355;}
	.st2{fill:#254355;stroke:#254355;stroke-miterlimit:10;}
	.st3{font-family:'NewKansas-Bold';}
	.st4{font-size:41.1046px;}
</style>
<g>
	<path class="st0" d="M18.7,62c-0.7-7.3-3.6-9.4-9.1-10.7c-1-0.5-1.4-1.2-1.4-2.2c0.2-1.2,1.2-1.9,2.4-1.9H45c1.2,0,1.7,1,1.4,1.9
		c-0.2,1.2-1,2.2-2.1,2.2c-3.8,0-6.4,1.5-6.9,4.8c-0.2,1.2,0,2.7,0.2,4.1l4.1,56.2c0,0.2,0,0.2,0.2,0.2s0.2-0.2,0.2-0.2l28.8-66.9
		c1-2.2,4.8-2.9,10-2.9c3.8,0,7.4,0.2,7.4,1.7l4.3,68.3c0,0.2,0,0.2,0.2,0.2s0.2-0.2,0.2-0.2l26.7-56.4c0.7-1.5,1.2-2.4,1.4-3.6
		c0.7-3.6-1.7-5.1-7.1-5.3c-1.2-0.2-1.7-1-1.7-2.2c0.2-1.2,1.2-1.9,2.4-1.9h25c1.4,0,2.1,0.7,1.9,1.9s-1.2,1.9-2.4,2.2
		c-5.5,1-8.6,3.9-11.4,9.9L95.7,126c-1.2,2.4-5.7,3.6-11,3.6c-4.8,0-8.3-1-8.3-2.9l-3.8-59.8c0-0.7,0-0.7-0.2-0.7s-0.2,0.2-0.5,0.7
		L45.4,126c-1.2,2.7-6,3.6-11.2,3.6c-4.8,0-8.3-1-8.6-2.9L18.7,62z"/>
	<path class="st0" d="M183.1,48.7l12.2,65.2c1.2,5.8,3.3,9,8.8,10.7c1,0.5,1.7,1,1.7,2.2c-0.2,1.5-1.2,1.9-2.4,1.9h-33.8
		c-1.2,0-1.9-1-1.7-1.9c0.2-1,1-1.9,2.1-2.2c2.9-0.2,6.2-1.5,6.7-5.1c0.2-1,0.2-2.2,0-3.6l-2.4-12.6c0-1-0.2-1.2-1.2-1.2H151
		c-3.8,0-7.9,0.7-10.5,4.8l-5.2,9.7c-0.7,1.2-1.2,2.4-1.2,3.1c-0.7,4.1,3.6,4.8,6.7,4.8c1.2,0,1.7,1,1.4,1.9
		c-0.2,1.2-1.2,2.2-2.4,2.2h-24.5c-1.4,0-1.9-0.7-1.7-1.9c0.2-1,0.7-1.9,2.1-2.2c6.2-1.5,8.8-5.1,12.2-10.2l37.9-64.2
		c1.4-2.4,6-3.9,10.7-3.9C180,46.3,182.9,47.2,183.1,48.7z M148.1,94.2c-0.2,0.5-0.5,0.7-0.5,0.7c0,0.2,0.2,0.5,0.5,0.5h22.4
		c1.4,0,1.9-0.5,2.1-1.5c0-0.5,0-1,0-1.7L169,72.8c-0.7-4.1-1.7-8.2-1.7-12.6c0-0.2,0-0.5-0.2-0.5s-0.2,0.2-0.2,0.5
		c-1.4,3.1-3.1,6.3-5,9.2L148.1,94.2z"/>
	<path class="st0" d="M261.3,47c10,0,16.4-0.7,20.3-0.7c4.8,0,4.5,3.1,4.1,5.3s-3.6,14.5-3.8,16.5c-0.2,1.7-1.4,2.2-2.6,2.2
		s-1.9-1-1.9-2.2c-0.2-8.2-4.8-12.6-11.4-14.3c-1.7-0.5-5.2-0.7-6.2-0.7s-1.4,0.5-1.7,1.5L246,113.1c-1.2,7.5,2.1,10.4,8.6,11.6
		c1,0.2,1.4,1,1.4,1.9c-0.2,1.5-1.4,2.2-2.4,2.2h-36c-1.2,0-1.7-0.7-1.4-1.9c0.2-1.2,1-1.9,2.1-2.2c5.5-1.9,9.5-5.8,10.7-11.6
		l12.2-58.6c0.2-1-0.5-1.5-1.4-1.5c-1.2,0-5.7,0.2-6.9,0.5c-7.6,1.2-13.6,6.3-18.1,14.3c-1,1.7-1.9,2.4-3.3,2.4
		c-1,0-1.7-0.7-1.4-1.9l6-17.2c0.7-2.4,2.4-5.1,6.4-5.1l18.1,0.7L261.3,47L261.3,47z"/>
	<path class="st0" d="M326.3,47c10.2,0,19.3-0.7,24.3-0.7c3.6,0,4.5,1.9,4.1,5.1l-4.1,14.5c-0.5,1.9-1.2,2.4-2.4,2.4
		c-1,0-1.7-0.7-1.9-1.9c-1-8-5-11.6-12.2-12.6c-1.7-0.7-15.2-1-17.9-1c-1,0-1.4,0.5-1.4,1.2l-5.2,25.9c-0.2,1.9,0.5,2.9,2.6,2.9
		c1.4,0,10.5-0.2,11.7-0.5c5.2-0.2,10.5-1,15.2-2.4c0.7-0.2,1.7-0.5,2.4-0.5c1,0,1.2,0.5,1,1.7l-2.4,8.7c-0.5,1.5-1.2,2.4-2.6,2.4
		c-3.6,0-7.9-1.7-14.1-2.2c-2.4-0.7-9.3-0.7-12.2-0.7c-2.1,0-3.6,1.5-4.1,3.4l-5,23.5c-0.7,4.6,1.7,6.8,8.8,6.8
		c1.7,0,8.8-0.2,10.7-0.7c7.1-1,14.1-3.9,19.5-12.8c0.7-1,1.4-1.9,2.6-1.9c1.4,0,1.7,1.2,1.4,2.7l-3.6,14.8
		c-0.7,3.1-3.3,4.8-6.4,4.8c-2.1,0-14.8-1-24.1-1h-35.3c-1.2,0-1.9-0.7-1.7-1.9c0.2-1.2,1-1.9,2.1-2.2c7.1-1.9,8.6-7.3,10-13.3
		L296.8,62c1-5.6,0.5-9.9-5.7-10.7c-1-0.2-1.4-1-1.2-1.9c0.2-1.5,1.2-2.2,2.4-2.2L326.3,47z"/>
	<path class="st0" d="M432.6,68.5c-2.4,14.1-16.7,22.5-29.3,23c-0.5,0.2-0.5,0.2-0.5,0.5s0,0.2,0.2,0.7c5.2,6.3,10.2,12.6,16,18.7
		c5,5.3,10.5,10.2,16.4,13.1c0.7,0.5,1.2,1,1,1.7c-0.2,1-1,1.7-2.1,1.9c-3.8,1.2-8.1,2.2-12.2,2.2c-7.6,0-14.3-2.4-18.3-7
		c-5.7-6.5-9.3-15.7-12.9-24.7c-1.4-3.9-3.1-6.1-7.1-6.1l-4.3,20.3c-1.4,8.5,1.7,11.1,9.1,12.4c1,0.2,1.7,1,1.7,2.2
		c-0.2,1.2-1.2,1.9-2.6,1.9h-35.5c-1,0-1.7-0.7-1.4-1.9c0.2-1.2,1-1.9,2.1-2.2c7.1-1.9,8.8-7,10.2-13.3L373,63
		c1-5.6,1-10.4-5.5-11.4c-1-0.2-1.4-1-1.4-1.9c0.5-1.5,1.4-2.2,2.4-2.2H383c6,0,16.4-0.7,23.6-0.7C422.3,46.3,435.4,51.8,432.6,68.5
		z M414.2,72.2c2.4-13.6-8.8-19.6-20.5-19.6c-1.4,0-2.1,0.7-2.6,2.2l-6.2,29.3c-0.2,2.4,1.2,3.4,8.1,3.4
		C403.8,87.4,412.3,82.8,414.2,72.2z"/>
</g>
<g id="VHgQn7_00000150069606244797630520000017215216552210796165_">
	<g>
		<path class="st1" d="M431.2,156.5c13.3,1.5,25.7,6.8,38.6,9.7c29.3,6.8,62.4-6.8,77-32.5c17.6-31,12.4-75.1-16.4-96.4
			c-20.7-15.3-43.6-18.7-67.7-9.2c-15.5,6.1-23.8,20.1-23.3,35.9c0.5,10.2,15.5,30.3,25,32.7c4.1,1.2,7.9,2.4,11.4,4.6
			c3.6,2.2,7.6,3.1,11.9,3.1c11,0.2,11.9,1.7,11,12.8c0,0.7-0.2,1.5-0.2,3.1c3.1-2.2,3.8-5.1,3.8-7.5c0-6.5,5.5-10.4,6.4-16.7
			c0.5-3.1,3.1-1.7,5-0.5c6.9,4.8,6.9,11.9,6,19.4c-0.2,2.7-1.2,5.1-2.1,9c10.2-11.1,7.1-28.6-4.8-35.6c-1.9-1.2-6-1.2-4.5-4.4
			c1.2-2.4,5-1.5,7.4-0.7c4.1,1.2,7.1,3.6,9.5,7.5c10,17.9,4.8,37.5-14.1,51.6c-1.4,1-3.3,1.5-4.3,3.6c6-0.5,15-6.5,20.5-14.3
			c8.6-12.4,10.7-25.7,5.5-40c-3.3-9.4-10.2-15-20-16.7c-1.7-0.2-4.3,0.7-4.5-1.9c-0.2-1.9,1.9-3.1,3.3-4.4c1.4-1,3.1-1.9,5-2.9
			c-8.8-1-16,7.8-14.5,17.4c0.5,3.1,1.4,6.1,1.9,9.2s0.7,6.5-2.6,8.2c-3.6,1.9-6.7,0.2-9.5-2.4c-2.6-2.7-3.6-6.3-5.5-9.7
			c-2.6,2.2-0.7,4.4-1,6.3c0,1.5,1.7,3.4-0.2,4.6c-1.7,1-3.1-0.2-4.8-0.7c-6.4-2.4-9.3-8-10.7-14.3c-2.1,0-1.9,1.7-1.9,2.7
			c-1.2,5.6-2.9,6.3-7.1,2.7c-4.1-3.1-6.9-7.3-6.7-12.8c0-2.2,0-4.4,0-6.5c-3.8-0.2-2.1,5.8-5.5,4.1c-3.6-1.9-5.5-5.8-5.5-9.9
			c-0.5-11.1,2.9-20.6,12.4-27.1c12.6-8.7,26.2-11.9,41.9-8.5c-5.5,1.5-10.7,1.2-16.7,5.8c12.6-0.7,23.6-2.9,35.7,2.2
			c-13.6,1.7-25.5,3.4-34.5,14.5c3.6,0.2,5-2.2,6.9-3.1c21-11.6,51.5-9,60.3,23c6.2,22.8,5.2,45.3-9.5,64.2
			c-18.6,23.7-44.1,31.5-73.1,25.7c-7.1-1.5-14.1-3.4-21.2-5.1C440,155.3,435.7,155.5,431.2,156.5z"/>
		<path class="st1" d="M369,166.2c24.8-16.2,52.7-18.7,81-19.9c10.2-0.5,20.3-1.2,29.8-5.1c10.7-4.4,16.4-15.7,13.6-27.6
			c-0.5,0-1,0.2-1,0.2c-5,22.8-19.1,26.2-35.3,27.9c-19.1,1.9-38.4,2.2-56.9,7.8C388.5,152.8,377.3,156.7,369,166.2z"/>
		<path class="st1" d="M510,107.1c-0.5,19.9-12.4,30.5-28.6,38.3c10.5-2.2,21-4.6,27.2-14.5C513.1,123.5,513.8,115.5,510,107.1z"/>
		<path class="st1" d="M417.3,152.6c22.9-0.5,45.7,7.8,68.4-0.2C463.1,156.7,440.2,148.2,417.3,152.6z"/>
	</g>
</g>
<text transform="matrix(0.9691 0 -0.1708 0.9853 1.136 31.9314)" class="st2 st3 st4">ON THE</text>
</svg>
